<svg id="Layer_1" data-name="Layer 1" xmlns="http://www.w3.org/2000/svg" viewBox="0 0 1155 298"><defs><style>.cls-1{fill:#3ca4dd;}.cls-2{fill:#ffef00;}.cls-3{fill:#e82f81;}.cls-4{fill:#6e3282;}.cls-5{fill:#a2c72d;}.cls-6{fill:#f49200;}.cls-7{fill:#a07d23;}.cls-8{fill:#e93081;}.cls-9{fill:#9d3828;}.cls-10{fill:#e5200c;}.cls-11{fill:#9e1779;}.cls-12{fill:#28b9cb;}.cls-13{fill:#6e3772;}.cls-14{fill:#3ea4dd;}.cls-15{fill:#3d2f82;}.cls-16{fill:none;stroke:#91c800;stroke-miterlimit:10;stroke-width:6.91px;}</style></defs><title>logo</title><path class="cls-1" d="M177.07,101.08C108.67,76.61,77.74,123,77.72,162a18.84,18.84,0,0,0,37.68,0h0c0-5,2.63-24.47,17.33-29,9.6-2.91,22.18.16,31.65,3.55Z"/><path class="cls-2" d="M151.93,118.83a18.84,18.84,0,1,1,18.84,18.83,18.83,18.83,0,0,1-18.84-18.83Z"/><path class="cls-3" d="M115.4,227.18V112.91a18.84,18.84,0,0,0-37.68,0V227.18H115.4"/><path class="cls-4" d="M111.41,101.31C88.51,113.39,77.73,139,77.72,162a18.84,18.84,0,0,0,37.68,0h0V112.91a18.8,18.8,0,0,0-4-11.6"/><circle class="cls-5" cx="96.56" cy="227.3" r="18.84"/><path class="cls-6" d="M251.42,170.79h0A47.62,47.62,0,0,0,255,189.41a34.36,34.36,0,0,0,19.3,19.07,50,50,0,0,0,18.84,3.34h.06a42.28,42.28,0,0,0,15-3,44.41,44.41,0,0,0,13.42-8.14l25.15,28.06A82.06,82.06,0,0,1,321.8,244a79.69,79.69,0,0,1-28.7,5.53h0a89.71,89.71,0,0,1-28.19-4.33,74,74,0,0,1-23.31-12.6,71.28,71.28,0,0,1-11.94-12.25,75.09,75.09,0,0,1-10.77-19.72,86.45,86.45,0,0,1-5.13-29.8Z"/><path class="cls-5" d="M289.4,92.09h-.09c-41.27,0-75.58,35.33-75.57,78.7h37.68c0-22.78,17.61-41,37.91-41,16.7,0,29.06,8.58,35.06,22.19l41.47,18.83c0-43.9-31.73-78.7-76.46-78.7"/><path class="cls-7" d="M232.58,152a18.84,18.84,0,0,0-18.84,18.83h0A18.84,18.84,0,1,0,232.58,152"/><path class="cls-8" d="M324.39,152H281.86a18.84,18.84,0,1,0,0,37.67H347Z"/><path class="cls-9" d="M347,152H324.39a3.09,3.09,0,0,1,.14.32,46.82,46.82,0,0,1,3.66,18.51A18.83,18.83,0,0,0,347,189.63h0a18.83,18.83,0,0,0,18.84-18.84h0A18.83,18.83,0,0,0,347,152"/><path class="cls-1" d="M315.31,214.74a18.84,18.84,0,1,1,18.83,18.84,18.84,18.84,0,0,1-18.83-18.84Z"/><path class="cls-6" d="M413.57,245.65a18.84,18.84,0,0,1-18.84-18.84V110.61a18.84,18.84,0,0,1,37.68,0v116.2a18.85,18.85,0,0,1-18.84,18.84Z"/><path class="cls-8" d="M532.31,159.55c0-51.9-57.09-83.84-102.6-58.64a18.7,18.7,0,0,1,2.7,9.7v48.94c0-33.58,50.48-41.43,60.88-8.73a28.79,28.79,0,0,1,1.34,8.73Z"/><path class="cls-10" d="M429.71,100.9a68.49,68.49,0,0,0-23,20.75,66,66,0,0,0-11.94,37.9,18.84,18.84,0,0,0,37.68,0V110.61a18.76,18.76,0,0,0-2.7-9.71"/><rect class="cls-5" x="494.63" y="159.55" width="37.6" height="68.91"/><path class="cls-9" d="M513.47,140.72a18.84,18.84,0,0,0-18.84,18.83h0a18.84,18.84,0,1,0,37.68,0h0a18.84,18.84,0,0,0-18.84-18.83"/><path class="cls-1" d="M494.63,226.93a18.84,18.84,0,1,1,18.84,18.83,18.84,18.84,0,0,1-18.84-18.83Z"/><path class="cls-11" d="M394.73,226.93a18.84,18.84,0,1,1,18.84,18.83,18.83,18.83,0,0,1-18.84-18.83Z"/><rect class="cls-12" x="677.91" y="56.84" width="37.68" height="170.83"/><path class="cls-8" d="M677.91,104.89A75,75,0,0,0,637.38,93,75.86,75.86,0,0,0,574,127.47c-33.75,51.19,2,121,63.37,121a75,75,0,0,0,42.2-13ZM637.41,210.8h0c-21.28,0-38.61-17.86-38.62-40,0-39.42,49.25-54.86,70.54-22.55,17.49,26.54-1,62.58-31.92,62.59"/><path class="cls-13" d="M677.91,104.89c0,133.82-.65,125.47,1.7,130.62,46.25-31.32,45.12-100.7-1.7-130.62"/><path class="cls-2" d="M677.91,56.84a18.84,18.84,0,1,1,18.84,18.84,18.85,18.85,0,0,1-18.84-18.84Z"/><path class="cls-6" d="M677.91,227.79a18.84,18.84,0,1,1,18.84,18.83,18.84,18.84,0,0,1-18.84-18.83Z"/><path class="cls-6" d="M866.89,171.85A39.9,39.9,0,0,0,865,159.74a40.36,40.36,0,0,0-5.25-10.68,42.4,42.4,0,0,0-18.64-15,43.87,43.87,0,0,0-29.35-1.4,42.61,42.61,0,0,0-11.12,5.23A41.58,41.58,0,0,0,785.38,156a39.74,39.74,0,0,0-3.26,15.84H744.44a77.65,77.65,0,0,1,13.79-44.2,80,80,0,0,1,35.24-28.4,80.86,80.86,0,0,1,31-6.14h0a81.39,81.39,0,0,1,23.68,3.5,80.49,80.49,0,0,1,20.93,9.85,79.25,79.25,0,0,1,29.08,34.6,77.2,77.2,0,0,1,6.36,30.79Z"/><path class="cls-14" d="M904.56,171.85a18.84,18.84,0,1,1-37.67,0h0c0,22.85-19.13,41.07-42.39,41.07-23.49,0-42.37-18.43-42.38-41.07h0a18.84,18.84,0,0,1-37.68,0c0,43.37,35.75,78.75,80,78.75h0c44.18,0,80.07-35.25,80.06-78.75"/><path class="cls-11" d="M763.28,153a18.84,18.84,0,0,0-18.84,18.83h0a18.84,18.84,0,0,0,37.68,0h0A18.84,18.84,0,0,0,763.28,153"/><path class="cls-15" d="M885.72,153a18.83,18.83,0,0,0-18.83,18.83h0a18.84,18.84,0,1,0,37.67,0h0A18.83,18.83,0,0,0,885.72,153"/><path class="cls-6" d="M952.26,245.65a18.84,18.84,0,0,1-18.84-18.84V110.61a18.84,18.84,0,1,1,37.67,0v116.2A18.84,18.84,0,0,1,952.26,245.65Z"/><path class="cls-8" d="M1071,159.55c0-51.9-57.08-83.84-102.59-58.64a18.69,18.69,0,0,1,2.69,9.7v48.94c0-33.58,50.49-41.43,60.89-8.73a28.79,28.79,0,0,1,1.34,8.73Z"/><path class="cls-10" d="M968.4,100.9a68.49,68.49,0,0,0-23,20.75,66,66,0,0,0-11.94,37.9,18.84,18.84,0,1,0,37.67,0V110.61a18.76,18.76,0,0,0-2.69-9.71"/><rect class="cls-5" x="1033.32" y="159.55" width="37.6" height="68.91"/><path class="cls-9" d="M1052.16,140.72a18.83,18.83,0,0,0-18.84,18.83h0a18.84,18.84,0,1,0,37.68,0h0a18.84,18.84,0,0,0-18.84-18.83"/><circle class="cls-1" cx="1052.16" cy="226.93" r="18.84"/><circle class="cls-11" cx="952.26" cy="226.93" r="18.84"/><rect class="cls-16" x="3" y="2.95" width="1148.5" height="291.55"/></svg>